<svg width="100%" viewBox="0 0 800 160" xmlns="http://www.w3.org/2000/svg" preserveAspectRatio="xMidYMax meet">
        <defs>
          <linearGradient id="bld" x1="0" y1="0" x2="0" y2="1">
            <stop offset="0%" stop-color="#2a1a3e"/>
            <stop offset="100%" stop-color="#0a0a14"/>
          </linearGradient>
        </defs>
        <rect x="0" y="60" width="60" height="100" fill="url(#bld)" rx="2"/>
        <rect x="10" y="40" width="30" height="120" fill="url(#bld)" rx="2"/>
        <rect x="65" y="80" width="50" height="80" fill="url(#bld)" rx="2"/>
        <rect x="75" y="55" width="20" height="105" fill="url(#bld)" rx="1"/>
        <rect x="120" y="30" width="35" height="130" fill="url(#bld)" rx="2"/>
        <rect x="130" y="10" width="14" height="150" fill="url(#bld)" rx="1"/>
        <rect x="160" y="70" width="55" height="90" fill="url(#bld)" rx="2"/>
        <rect x="175" y="45" width="25" height="115" fill="url(#bld)" rx="1"/>
        <rect x="220" y="85" width="45" height="75" fill="url(#bld)" rx="2"/>
        <rect x="270" y="50" width="40" height="110" fill="url(#bld)" rx="2"/>
        <rect x="280" y="25" width="16" height="135" fill="url(#bld)" rx="1"/>
        <rect x="315" y="75" width="55" height="85" fill="url(#bld)" rx="2"/>
        <rect x="375" y="90" width="40" height="70" fill="url(#bld)" rx="2"/>
        <rect x="420" y="35" width="50" height="125" fill="url(#bld)" rx="2"/>
        <rect x="430" y="5" width="18" height="155" fill="url(#bld)" rx="1"/>
        <rect x="475" y="65" width="45" height="95" fill="url(#bld)" rx="2"/>
        <rect x="525" y="80" width="55" height="80" fill="url(#bld)" rx="2"/>
        <rect x="540" y="50" width="22" height="110" fill="url(#bld)" rx="1"/>
        <rect x="585" y="45" width="40" height="115" fill="url(#bld)" rx="2"/>
        <rect x="630" y="75" width="50" height="85" fill="url(#bld)" rx="2"/>
        <rect x="645" y="30" width="18" height="130" fill="url(#bld)" rx="1"/>
        <rect x="685" y="60" width="55" height="100" fill="url(#bld)" rx="2"/>
        <rect x="745" y="50" width="40" height="110" fill="url(#bld)" rx="2"/>
        <circle cx="137" cy="8" r="2" fill="rgba(255,200,100,0.7)"/>
        <circle cx="287" cy="23" r="2" fill="rgba(255,200,100,0.6)"/>
        <circle cx="437" cy="3" r="2" fill="rgba(255,200,100,0.8)"/>
        <circle cx="548" cy="48" r="1.5" fill="rgba(255,200,100,0.5)"/>
        <circle cx="648" cy="28" r="2" fill="rgba(255,200,100,0.7)"/>
        <rect x="0" y="150" width="800" height="10" fill="#0a0a0a"/>
      </svg>